<?xml version="1.0" encoding="UTF-8" standalone="no"?>
<!-- Created with Inkscape (http://www.inkscape.org/) -->

<svg
   width="54.756348mm"
   height="54.539326mm"
   viewBox="0 0 54.756348 54.539326"
   version="1.1"
   id="svg1"
   xml:space="preserve"
   xmlns:inkscape="http://www.inkscape.org/namespaces/inkscape"
   xmlns:sodipodi="http://sodipodi.sourceforge.net/DTD/sodipodi-0.dtd"
   xmlns:xlink="http://www.w3.org/1999/xlink"
   xmlns="http://www.w3.org/2000/svg"
   xmlns:svg="http://www.w3.org/2000/svg"><sodipodi:namedview
     id="namedview1"
     pagecolor="#ffffff"
     bordercolor="#000000"
     borderopacity="0.25"
     inkscape:showpageshadow="2"
     inkscape:pageopacity="0.0"
     inkscape:pagecheckerboard="0"
     inkscape:deskcolor="#d1d1d1"
     inkscape:document-units="mm"
     showguides="true" /><defs
     id="defs1"><linearGradient
       id="linearGradient218"
       inkscape:collect="always"><stop
         style="stop-color:#00b600;stop-opacity:1;"
         offset="0"
         id="stop218" /><stop
         style="stop-color:#00b600;stop-opacity:1;"
         offset="0.91797197"
         id="stop220" /><stop
         style="stop-color:#008200;stop-opacity:1;"
         offset="1"
         id="stop219" /></linearGradient><linearGradient
       id="linearGradient206"
       inkscape:collect="always"><stop
         style="stop-color:#007400;stop-opacity:1;"
         offset="0"
         id="stop205" /><stop
         style="stop-color:#008600;stop-opacity:1;"
         offset="1"
         id="stop206" /></linearGradient><linearGradient
       id="linearGradient196"
       inkscape:collect="always"><stop
         style="stop-color:#00d100;stop-opacity:1;"
         offset="0"
         id="stop197" /><stop
         style="stop-color:#008c00;stop-opacity:1;"
         offset="1"
         id="stop196" /></linearGradient><linearGradient
       inkscape:collect="always"
       xlink:href="#linearGradient196"
       id="linearGradient211"
       gradientUnits="userSpaceOnUse"
       gradientTransform="translate(155.47543,64.508671)"
       x1="-200.92751"
       y1="513.52917"
       x2="-182.33699"
       y2="364.87402" /><linearGradient
       inkscape:collect="always"
       xlink:href="#linearGradient206"
       id="linearGradient212"
       gradientUnits="userSpaceOnUse"
       gradientTransform="translate(155.47543,64.508671)"
       x1="-296.98575"
       y1="393.61145"
       x2="-162.40585"
       y2="508.58191" /><radialGradient
       inkscape:collect="always"
       xlink:href="#linearGradient218"
       id="radialGradient219"
       cx="-57.748226"
       cy="507.49994"
       fx="-57.748226"
       fy="507.49994"
       r="70.282684"
       gradientUnits="userSpaceOnUse" /></defs><g
     inkscape:groupmode="layer"
     id="layer2"
     inkscape:label="Layer 2"
     transform="translate(-100.74491,-153.0924)"><g
       id="g211"
       transform="matrix(0.34395786,0,0,0.34395786,147.97948,5.6642754)"><circle
         style="display:inline;fill:url(#radialGradient219);stroke:none;stroke-width:10.376;stroke-dasharray:none;stroke-opacity:1"
         id="circle207"
         cx="-57.748226"
         cy="507.49994"
         r="70.282684" /><path
         id="path207"
         style="fill:url(#linearGradient211);stroke:none;stroke-width:7.60066;stroke-dasharray:none;stroke-opacity:1"
         d="m -57.41364,428.62265 c 43.786244,-4e-5 79.282016,35.49574 79.28198,79.28198 3.6e-5,43.78624 -35.495736,79.28202 -79.28198,79.28198 -16.281337,-0.059 -32.149747,-5.12916 -45.44891,-14.52159 8.3056,3.40833 17.240409,4.28146 26.16688,5.23947 55.251302,5.92972 88.553721,-31.51844 88.553798,-70.17826 -7.7e-5,-38.65983 -25.274326,-71.6087 -88.553798,-69.82146 -8.988807,0.25388 -17.899777,1.74066 -26.23509,5.11493 13.33283,-9.36157 29.225919,-14.38855 45.51712,-14.39705 z"
         sodipodi:nodetypes="csccscscc" /><path
         id="path208"
         style="fill:url(#linearGradient212);fill-opacity:1;stroke:none;stroke-width:7.60066;stroke-dasharray:none;stroke-opacity:1"
         d="m -58.04462,428.62265 c -43.78624,-4e-5 -79.28202,35.49574 -79.28198,79.28198 -4e-5,43.78624 35.49574,79.28202 79.28198,79.28198 16.281337,-0.059 32.465335,-4.70837 45.764498,-14.1008 -8.619342,2.62397 -15.790171,4.0603 -26.482468,4.81868 -57.724079,4.09426 -87.00143,-31.34004 -87.00151,-69.99986 8e-5,-38.65982 30.996958,-75.34453 87.00151,-69.99986 8.882875,0.84772 14.866287,1.39741 26.721404,4.9204 -13.33283,-9.36157 -29.712233,-14.19402 -46.003434,-14.20252 z"
         sodipodi:nodetypes="csccscscc" /><g
         id="g210"
         transform="matrix(2.8007367,0,0,2.8007367,1127.8974,-285.98517)"
         style="fill:#d3fdd3;fill-opacity:1"><path
           d="m -419.73249,275.73984 v 5.99573 c 0,5.1441 -7.18841,5.1441 -7.18841,0 v -5.99573 c 0,-5.2908 7.18841,-5.2908 7.18841,0 z"
           id="path209"
           style="fill:#d3fdd3;fill-opacity:1;stroke:none;stroke-width:0.190522;stroke-opacity:1"
           sodipodi:nodetypes="sssss" /><path
           d="m -422.4341,290.21952 v 4.07147 c -0.0526,1.13634 -1.73262,1.13634 -1.78519,0 V 290.21 c -0.82126,-0.0951 -1.62203,-0.32083 -2.37201,-0.66873 -0.83798,-0.38977 -1.60139,-0.923 -2.25578,-1.57562 l -0.01,-0.0171 c -0.72218,-0.72246 -1.29681,-1.57857 -1.69184,-2.52061 -0.39356,-0.94676 -0.59559,-1.9621 -0.59443,-2.98739 -0.007,-0.79962 0.96356,-1.20084 1.52418,-0.63064 l 0.0191,0.0191 c 0.15563,0.16557 0.24218,0.38433 0.24196,0.61158 -0.002,0.78861 0.15426,1.5696 0.45725,2.2977 0.61892,1.48361 1.79874,2.66273 3.2827,3.28078 1.47132,0.61212 3.12599,0.61212 4.59731,0 0.73314,-0.30582 1.39919,-0.75245 1.96046,-1.31459 l 0.0153,-0.0133 c 0.55482,-0.55903 0.99607,-1.22026 1.29936,-1.94714 0.30113,-0.73039 0.45397,-1.51339 0.44964,-2.30342 0.0526,-1.13634 1.73262,-1.13634 1.78518,0 7.3e-4,1.0234 -0.20123,2.03682 -0.59443,2.98167 -0.39586,0.95064 -0.97382,1.81469 -1.70136,2.54348 l -0.0171,0.0153 c -0.64988,0.64573 -1.40746,1.17313 -2.23863,1.55847 -0.75074,0.34764 -1.5521,0.57338 -2.37391,0.66874 z"
           id="path210"
           style="fill:#d3fdd3;fill-opacity:1;stroke:none;stroke-width:0.190522;stroke-opacity:1"
           sodipodi:nodetypes="cccccccccccccccccccccccccc" /></g></g></g></svg>
