<?xml version="1.0" encoding="UTF-8" standalone="no"?>
<!-- Created with Inkscape (http://www.inkscape.org/) -->

<svg
   width="54.756359mm"
   height="54.539341mm"
   viewBox="0 0 54.756359 54.539341"
   version="1.1"
   id="svg1"
   xml:space="preserve"
   xmlns:inkscape="http://www.inkscape.org/namespaces/inkscape"
   xmlns:sodipodi="http://sodipodi.sourceforge.net/DTD/sodipodi-0.dtd"
   xmlns:xlink="http://www.w3.org/1999/xlink"
   xmlns="http://www.w3.org/2000/svg"
   xmlns:svg="http://www.w3.org/2000/svg"><sodipodi:namedview
     id="namedview1"
     pagecolor="#ffffff"
     bordercolor="#000000"
     borderopacity="0.25"
     inkscape:showpageshadow="2"
     inkscape:pageopacity="0.0"
     inkscape:pagecheckerboard="0"
     inkscape:deskcolor="#d1d1d1"
     inkscape:document-units="mm"
     showguides="true" /><defs
     id="defs1"><linearGradient
       id="linearGradient225"
       inkscape:collect="always"><stop
         style="stop-color:#1aff1a;stop-opacity:1;"
         offset="0"
         id="stop224" /><stop
         style="stop-color:#009d00;stop-opacity:1;"
         offset="1"
         id="stop225" /></linearGradient><linearGradient
       id="linearGradient200"
       inkscape:collect="always"><stop
         style="stop-color:#005c00;stop-opacity:1;"
         offset="0"
         id="stop201" /><stop
         style="stop-color:#007a00;stop-opacity:1;"
         offset="1"
         id="stop200" /></linearGradient><linearGradient
       id="linearGradient198"
       inkscape:collect="always"><stop
         style="stop-color:#009900;stop-opacity:1;"
         offset="0"
         id="stop199" /><stop
         style="stop-color:#00a700;stop-opacity:1;"
         offset="1"
         id="stop198" /></linearGradient><linearGradient
       inkscape:collect="always"
       xlink:href="#linearGradient225"
       id="linearGradient197"
       x1="-236.58502"
       y1="467.25027"
       x2="-133.02341"
       y2="425.56766"
       gradientUnits="userSpaceOnUse"
       gradientTransform="matrix(0.34395786,0,0,0.34395786,118.91538,-43.417966)" /><linearGradient
       inkscape:collect="always"
       xlink:href="#linearGradient198"
       id="linearGradient199"
       x1="-257.19266"
       y1="356.7186"
       x2="-160.83249"
       y2="505.8949"
       gradientUnits="userSpaceOnUse"
       gradientTransform="matrix(0.34395786,0,0,0.34395786,118.91538,-43.417966)" /><linearGradient
       inkscape:collect="always"
       xlink:href="#linearGradient200"
       id="linearGradient201"
       x1="-220.70277"
       y1="363.67764"
       x2="-189.44286"
       y2="524.99725"
       gradientUnits="userSpaceOnUse"
       gradientTransform="matrix(0.34395786,0,0,0.34395786,118.91538,-43.417966)" /></defs><g
     inkscape:groupmode="layer"
     id="layer2"
     inkscape:label="Layer 2"
     transform="translate(-18.203818,-81.821882)"><path
       id="path195-3"
       style="fill:url(#linearGradient199);stroke:none;stroke-width:2.61431;stroke-dasharray:none;stroke-opacity:1"
       d="M 45.582231,81.821879 A 27.269638,27.269638 0 0 0 18.312577,109.09153 27.269638,27.269638 0 0 0 45.582231,136.36119 27.269638,27.269638 0 0 0 72.851884,109.09153 27.269638,27.269638 0 0 0 45.582231,81.821879 Z m 0,9.722404 a 17.547056,17.547056 0 0 1 17.546732,17.547247 17.547056,17.547056 0 0 1 -17.546732,17.54725 17.547056,17.547056 0 0 1 -17.54725,-17.54725 17.547056,17.547056 0 0 1 17.54725,-17.547247 z" /><path
       id="path196"
       style="fill:url(#linearGradient197);stroke:none;stroke-width:2.61431;stroke-dasharray:none;stroke-opacity:1"
       d="M 45.69051,81.821896 A 27.269637,27.269637 0 0 1 72.960175,109.09155 27.269637,27.269637 0 0 1 45.69051,136.36121 27.269637,27.269637 0 0 1 30.058,131.3664 24.07705,24.07705 0 0 0 39.058306,133.16856 24.07705,24.07705 0 0 0 63.13531,109.09155 24.07705,24.07705 0 0 0 39.058306,85.014552 24.07705,24.07705 0 0 0 30.034545,86.773877 27.269637,27.269637 0 0 1 45.69051,81.821896 Z" /><path
       id="path195"
       style="fill:url(#linearGradient201);fill-opacity:1;stroke:none;stroke-width:2.61431;stroke-dasharray:none;stroke-opacity:1"
       d="m 45.473485,81.821896 c -15.060622,-1.3e-5 -27.269674,12.209039 -27.269666,27.269654 -8e-6,15.06062 12.209044,27.26968 27.269666,27.26966 5.600093,-0.0203 10.917827,-1.52365 15.712696,-4.81439 -2.856778,1.17232 -5.992586,1.60373 -9.080492,1.62174 -13.297354,-4e-5 -24.076972,-10.77966 -24.077005,-24.07701 3.3e-5,-13.297339 10.779651,-24.076965 24.077005,-24.076998 3.093002,0.0016 6.199186,0.485597 9.066189,1.646201 -4.58594,-3.219984 -10.094913,-4.835933 -15.698393,-4.838857 z"
       sodipodi:nodetypes="csccccccc" /></g></svg>
